<svg width="25" height="24" viewBox="0 0 25 24" fill="none" xmlns="http://www.w3.org/2000/svg">
<path d="M18.4445 8C18.4445 6.4087 17.8123 4.88258 16.6871 3.75736C15.5619 2.63214 14.0358 2 12.4445 2C10.8532 2 9.32704 2.63214 8.20182 3.75736C7.0766 4.88258 6.44446 6.4087 6.44446 8C6.44446 15 3.44446 17 3.44446 17H21.4445C21.4445 17 18.4445 15 18.4445 8Z" stroke="#64748B" stroke-width="2" stroke-linecap="round" stroke-linejoin="round"/>
<path d="M14.174 21C13.9982 21.3031 13.7458 21.5547 13.4422 21.7295C13.1386 21.9044 12.7944 21.9965 12.444 21.9965C12.0936 21.9965 11.7494 21.9044 11.4458 21.7295C11.1421 21.5547 10.8898 21.3031 10.714 21" stroke="#64748B" stroke-width="2" stroke-linecap="round" stroke-linejoin="round"/>
</svg>
